<svg width="142" height="33" viewBox="0 0 142 33" fill="none" xmlns="http://www.w3.org/2000/svg">
<path d="M11.8256 3.54545H16.5643V14.7273C16.5643 16.0568 16.2461 17.2074 15.6097 18.179C14.979 19.1449 14.0984 19.892 12.9677 20.4205C11.837 20.9432 10.5245 21.2045 9.03018 21.2045C7.5245 21.2045 6.20632 20.9432 5.07564 20.4205C3.94496 19.892 3.06428 19.1449 2.43359 18.179C1.80859 17.2074 1.49609 16.0568 1.49609 14.7273V3.54545H6.23473V14.3182C6.23473 14.858 6.35405 15.3409 6.59268 15.767C6.83132 16.1875 7.16087 16.517 7.58132 16.7557C8.00746 16.9943 8.49041 17.1136 9.03018 17.1136C9.57564 17.1136 10.0586 16.9943 10.479 16.7557C10.8995 16.517 11.229 16.1875 11.4677 15.767C11.7063 15.3409 11.8256 14.858 11.8256 14.3182V3.54545ZM33.9187 3.54545V21H29.9641L23.6573 11.8295H23.555V21H18.8164V3.54545H22.8391L29.0437 12.6818H29.18V3.54545H33.9187ZM40.8988 3.54545V21H36.1602V3.54545H40.8988ZM42.6673 7.36364V3.54545H57.8377V7.36364H52.5877V21H47.9173V7.36364H42.6673ZM59.6211 21V3.54545H72.2006V7.36364H64.3597V10.3636H71.5529V14.1818H64.3597V17.1818H72.1665V21H59.6211ZM81.2667 21H74.5508V3.54545H81.1985C82.994 3.54545 84.5451 3.89489 85.8519 4.59375C87.1644 5.28693 88.1758 6.28693 88.886 7.59375C89.6019 8.89489 89.9599 10.4545 89.9599 12.2727C89.9599 14.0909 89.6048 15.6534 88.8945 16.9602C88.1843 18.2614 87.1786 19.2614 85.8775 19.9602C84.5763 20.6534 83.0394 21 81.2667 21ZM79.2894 16.9773H81.0962C81.9599 16.9773 82.6957 16.8381 83.3036 16.5597C83.9173 16.2812 84.3832 15.8011 84.7013 15.1193C85.0252 14.4375 85.1871 13.4886 85.1871 12.2727C85.1871 11.0568 85.0224 10.108 84.6928 9.42614C84.369 8.74432 83.8917 8.2642 83.261 7.98579C82.636 7.70739 81.869 7.56818 80.9599 7.56818H79.2894V16.9773Z" fill="white"/>
<path d="M92.1523 21V3.54545H99.6864C100.982 3.54545 102.115 3.80114 103.087 4.3125C104.059 4.82386 104.814 5.54261 105.354 6.46875C105.894 7.39489 106.164 8.47727 106.164 9.71591C106.164 10.9659 105.885 12.0483 105.328 12.9631C104.777 13.8778 104.002 14.5824 103.002 15.0767C102.007 15.571 100.846 15.8182 99.516 15.8182H95.016V12.1364H98.5614C99.1183 12.1364 99.5927 12.0398 99.9847 11.8466C100.382 11.6477 100.686 11.3665 100.897 11.0028C101.113 10.6392 101.221 10.2102 101.221 9.71591C101.221 9.21591 101.113 8.78977 100.897 8.4375C100.686 8.07955 100.382 7.80682 99.9847 7.61932C99.5927 7.42614 99.1183 7.32954 98.5614 7.32954H96.891V21H92.1523ZM124.811 12.2727C124.811 14.2159 124.434 15.8551 123.678 17.1903C122.922 18.5199 121.902 19.5284 120.618 20.2159C119.334 20.8977 117.902 21.2386 116.323 21.2386C114.732 21.2386 113.294 20.8949 112.01 20.2074C110.732 19.5142 109.715 18.5028 108.959 17.1733C108.209 15.8381 107.834 14.2045 107.834 12.2727C107.834 10.3295 108.209 8.69318 108.959 7.36364C109.715 6.02841 110.732 5.01989 112.01 4.33807C113.294 3.65057 114.732 3.30682 116.323 3.30682C117.902 3.30682 119.334 3.65057 120.618 4.33807C121.902 5.01989 122.922 6.02841 123.678 7.36364C124.434 8.69318 124.811 10.3295 124.811 12.2727ZM119.936 12.2727C119.936 11.2273 119.797 10.3466 119.519 9.63068C119.246 8.90909 118.84 8.36364 118.3 7.99432C117.766 7.61932 117.107 7.43182 116.323 7.43182C115.539 7.43182 114.877 7.61932 114.337 7.99432C113.803 8.36364 113.397 8.90909 113.118 9.63068C112.846 10.3466 112.709 11.2273 112.709 12.2727C112.709 13.3182 112.846 14.2017 113.118 14.9233C113.397 15.6392 113.803 16.1847 114.337 16.5597C114.877 16.929 115.539 17.1136 116.323 17.1136C117.107 17.1136 117.766 16.929 118.3 16.5597C118.84 16.1847 119.246 15.6392 119.519 14.9233C119.797 14.2017 119.936 13.3182 119.936 12.2727ZM127.004 21V3.54545H134.538C135.833 3.54545 136.967 3.80114 137.939 4.3125C138.91 4.82386 139.666 5.54261 140.206 6.46875C140.745 7.39489 141.015 8.47727 141.015 9.71591C141.015 10.9659 140.737 12.0483 140.18 12.9631C139.629 13.8778 138.853 14.5824 137.853 15.0767C136.859 15.571 135.697 15.8182 134.368 15.8182H129.868V12.1364H133.413C133.97 12.1364 134.444 12.0398 134.836 11.8466C135.234 11.6477 135.538 11.3665 135.748 11.0028C135.964 10.6392 136.072 10.2102 136.072 9.71591C136.072 9.21591 135.964 8.78977 135.748 8.4375C135.538 8.07955 135.234 7.80682 134.836 7.61932C134.444 7.42614 133.97 7.32954 133.413 7.32954H131.743V21H127.004Z" fill="#FF5E00"/>
<path d="M6.48855 31H5.49991L7.73074 26.6364H8.91966L9.69949 31H8.71085L8.18031 27.6335H8.14622L6.48855 31ZM6.7144 29.2848H9.04963L8.92605 30.005H6.59082L6.7144 29.2848ZM14.3364 28.1641H13.4159C13.4188 28.0419 13.4031 27.9339 13.3691 27.8402C13.335 27.745 13.2838 27.6641 13.2156 27.5973C13.1489 27.5305 13.0672 27.4801 12.9706 27.446C12.874 27.4105 12.7654 27.3928 12.6446 27.3928C12.4117 27.3928 12.1979 27.451 12.0033 27.5675C11.8087 27.6839 11.6446 27.853 11.5111 28.0746C11.3776 28.2947 11.2852 28.5611 11.2341 28.8736C11.1844 29.1747 11.1872 29.4268 11.2426 29.63C11.298 29.8331 11.396 29.9865 11.5367 30.0902C11.6787 30.1925 11.8556 30.2436 12.0672 30.2436C12.1979 30.2436 12.3222 30.2273 12.4401 30.1946C12.558 30.1605 12.6652 30.1122 12.7618 30.0497C12.8598 29.9858 12.945 29.9084 13.0175 29.8175C13.0914 29.7266 13.1489 29.6236 13.1901 29.5085H14.1169C14.0587 29.7088 13.9678 29.902 13.8442 30.0881C13.722 30.2741 13.5708 30.4403 13.3904 30.5866C13.21 30.7315 13.0047 30.8466 12.7746 30.9318C12.5445 31.017 12.2923 31.0597 12.0182 31.0597C11.6219 31.0597 11.2817 30.9688 10.9976 30.7869C10.7149 30.6051 10.5111 30.343 10.3861 30.0007C10.2611 29.6584 10.2377 29.2457 10.3158 28.7628C10.3939 28.2955 10.5466 27.8991 10.7739 27.5739C11.0026 27.2472 11.2803 26.9993 11.607 26.8303C11.9351 26.6612 12.286 26.5767 12.6595 26.5767C12.9195 26.5767 13.1546 26.6122 13.3648 26.6832C13.575 26.7543 13.754 26.858 13.9017 26.9943C14.0509 27.1293 14.1631 27.2947 14.2384 27.4908C14.3137 27.6868 14.3463 27.9112 14.3364 28.1641ZM15.2014 31H14.2128L16.4436 26.6364H17.6325L18.4124 31H17.4237L16.8932 27.6335H16.8591L15.2014 31ZM15.4273 29.2848H17.7625L17.6389 30.005H15.3037L15.4273 29.2848ZM20.5058 31H18.9376L19.662 26.6364H21.2004C21.6393 26.6364 22.0036 26.7259 22.2934 26.9048C22.5846 27.0838 22.7899 27.3402 22.9092 27.674C23.0285 28.0064 23.0498 28.4034 22.9731 28.8651C22.8992 29.3111 22.7522 29.6939 22.532 30.0135C22.3119 30.3317 22.0299 30.576 21.6862 30.7464C21.3424 30.9155 20.949 31 20.5058 31ZM19.9923 30.2095H20.559C20.8332 30.2095 21.0732 30.1584 21.2792 30.0561C21.4866 29.9538 21.6563 29.7962 21.7884 29.5831C21.922 29.37 22.0164 29.0973 22.0718 28.7649C22.1244 28.4496 22.1208 28.1939 22.0612 27.9979C22.0029 27.8004 21.89 27.6562 21.7224 27.5653C21.5548 27.473 21.3346 27.4268 21.0619 27.4268H20.4546L19.9923 30.2095ZM23.3028 31L24.0273 26.6364H26.9676L26.8398 27.397H24.822L24.6515 28.4368H26.518L26.3902 29.1974H24.5237L24.3532 30.2393H26.3795L26.2517 31H23.3028ZM27.7011 26.6364H28.8389L29.5569 29.5682H29.608L31.2934 26.6364H32.4312L31.7068 31H30.8119L31.2849 28.1598H31.2465L29.6528 30.9787H29.0413L28.385 28.1491H28.3488L27.8715 31H26.9767L27.7011 26.6364ZM32.9356 26.6364H33.969L34.653 28.5156H34.6998L36.0017 26.6364H37.0351L34.9768 29.4574L34.719 31H33.8028L34.0606 29.4574L32.9356 26.6364ZM42.5669 28.8778C42.4873 29.3437 42.3332 29.7393 42.1045 30.0646C41.8772 30.3899 41.5995 30.6371 41.2714 30.8061C40.9447 30.9751 40.5924 31.0597 40.2146 31.0597C39.8183 31.0597 39.4767 30.9695 39.1897 30.7891C38.9042 30.6087 38.6975 30.348 38.5697 30.0071C38.4419 29.6648 38.4177 29.2521 38.4972 28.7692C38.574 28.3018 38.7267 27.9055 38.9553 27.5803C39.184 27.2536 39.4632 27.005 39.7927 26.8345C40.1222 26.6626 40.4767 26.5767 40.8559 26.5767C41.2494 26.5767 41.5889 26.6676 41.8744 26.8494C42.1613 27.0312 42.368 27.294 42.4944 27.6378C42.6222 27.9801 42.6464 28.3935 42.5669 28.8778ZM41.6485 28.7692C41.6982 28.4695 41.6961 28.218 41.6421 28.0149C41.5896 27.8104 41.493 27.6555 41.3524 27.5504C41.2117 27.4453 41.0342 27.3928 40.8197 27.3928C40.5867 27.3928 40.373 27.451 40.1784 27.5675C39.9852 27.6839 39.8218 27.853 39.6883 28.0746C39.5562 28.2947 39.4646 28.5625 39.4134 28.8778C39.3623 29.179 39.3637 29.4304 39.4177 29.6321C39.4731 29.8338 39.5718 29.9865 39.7139 30.0902C39.8573 30.1925 40.0356 30.2436 40.2487 30.2436C40.4802 30.2436 40.6919 30.1868 40.8836 30.0732C41.0768 29.9581 41.2394 29.7912 41.3715 29.5724C41.5036 29.3523 41.596 29.0845 41.6485 28.7692ZM42.8966 31L43.621 26.6364H46.5102L46.3824 27.397H44.4157L44.2453 28.4368H46.0202L45.8923 29.1974H44.1175L43.8192 31H42.8966ZM48.5194 26.6364H49.6572L50.3753 29.5682H50.4264L52.1118 26.6364H53.2496L52.5251 31H51.6302L52.1032 28.1598H52.0649L50.4711 30.9787H49.8596L49.2034 28.1491H49.1672L48.6899 31H47.795L48.5194 26.6364ZM56.705 26.6364H57.6276L57.1588 29.4702C57.1063 29.7884 56.9848 30.0668 56.7945 30.3054C56.6041 30.544 56.3619 30.7301 56.0679 30.8636C55.7739 30.9957 55.4458 31.0618 55.0835 31.0618C54.7213 31.0618 54.4159 30.9957 54.1673 30.8636C53.9188 30.7301 53.7391 30.544 53.6283 30.3054C53.5175 30.0668 53.4884 29.7884 53.5409 29.4702L54.0097 26.6364H54.9323L54.4742 29.3913C54.4486 29.5575 54.4614 29.7053 54.5125 29.8345C54.5651 29.9638 54.6517 30.0653 54.7725 30.1392C54.8932 30.2131 55.0423 30.25 55.2199 30.25C55.3989 30.25 55.5608 30.2131 55.7057 30.1392C55.852 30.0653 55.972 29.9638 56.0658 29.8345C56.161 29.7053 56.2213 29.5575 56.2469 29.3913L56.705 26.6364ZM60.5407 27.9041C60.5479 27.7266 60.496 27.5895 60.3852 27.4929C60.2758 27.3963 60.1104 27.348 59.8888 27.348C59.7382 27.348 59.6075 27.3693 59.4967 27.4119C59.3859 27.4531 59.2971 27.5107 59.2304 27.5845C59.165 27.657 59.1246 27.7408 59.1089 27.8359C59.0933 27.9141 59.0983 27.9822 59.1238 28.0405C59.1508 28.0987 59.1927 28.1491 59.2496 28.1918C59.3078 28.233 59.3767 28.2692 59.4562 28.3004C59.5358 28.3303 59.6203 28.3558 59.7098 28.3771L60.0848 28.4709C60.268 28.5135 60.4328 28.5703 60.5791 28.6413C60.7268 28.7124 60.8504 28.7997 60.9498 28.9034C61.0507 29.0071 61.1217 29.1293 61.1629 29.2699C61.2041 29.4105 61.2098 29.5717 61.18 29.7536C61.1345 30.0206 61.0287 30.2521 60.8625 30.4482C60.6963 30.6428 60.4782 30.794 60.2084 30.902C59.9385 31.0085 59.626 31.0618 59.2709 31.0618C58.9186 31.0618 58.621 31.0078 58.3781 30.8999C58.1352 30.7919 57.9584 30.6321 57.8476 30.4205C57.7382 30.2074 57.7055 29.9439 57.7496 29.63H58.6423C58.6267 29.7763 58.648 29.8984 58.7062 29.9964C58.7659 30.093 58.8547 30.1662 58.9726 30.2159C59.0905 30.2642 59.229 30.2884 59.3881 30.2884C59.5457 30.2884 59.6856 30.2656 59.8078 30.2202C59.9314 30.1747 60.0315 30.1115 60.1082 30.0305C60.1849 29.9496 60.2318 29.8565 60.2488 29.7514C60.2659 29.6534 60.251 29.571 60.2041 29.5043C60.1572 29.4375 60.0819 29.3807 59.9782 29.3338C59.876 29.2855 59.7488 29.2429 59.5969 29.206L59.1409 29.0866C58.7886 28.9972 58.5223 28.8572 58.3419 28.6669C58.1615 28.4766 58.0969 28.2202 58.148 27.8977C58.1934 27.6335 58.3035 27.4027 58.4782 27.2053C58.6544 27.0064 58.876 26.8523 59.143 26.7429C59.4115 26.6321 59.7048 26.5767 60.023 26.5767C60.3469 26.5767 60.6203 26.6328 60.8433 26.745C61.0663 26.8558 61.229 27.0107 61.3312 27.2095C61.4335 27.4084 61.4648 27.6399 61.425 27.9041H60.5407ZM63.2409 26.6364L62.5164 31H61.5938L62.3183 26.6364H63.2409ZM67.5922 28.1641H66.6718C66.6746 28.0419 66.659 27.9339 66.6249 27.8402C66.5908 27.745 66.5397 27.6641 66.4715 27.5973C66.4047 27.5305 66.3231 27.4801 66.2265 27.446C66.1299 27.4105 66.0212 27.3928 65.9005 27.3928C65.6675 27.3928 65.4537 27.451 65.2591 27.5675C65.0645 27.6839 64.9005 27.853 64.767 28.0746C64.6334 28.2947 64.5411 28.5611 64.49 28.8736C64.4403 29.1747 64.4431 29.4268 64.4985 29.63C64.5539 29.8331 64.6519 29.9865 64.7925 30.0902C64.9346 30.1925 65.1114 30.2436 65.3231 30.2436C65.4537 30.2436 65.578 30.2273 65.6959 30.1946C65.8138 30.1605 65.9211 30.1122 66.0177 30.0497C66.1157 29.9858 66.2009 29.9084 66.2733 29.8175C66.3472 29.7266 66.4047 29.6236 66.4459 29.5085H67.3728C67.3145 29.7088 67.2236 29.902 67.1001 30.0881C66.9779 30.2741 66.8266 30.4403 66.6462 30.5866C66.4658 30.7315 66.2606 30.8466 66.0305 30.9318C65.8003 31.017 65.5482 31.0597 65.2741 31.0597C64.8778 31.0597 64.5376 30.9688 64.2535 30.7869C63.9708 30.6051 63.767 30.343 63.642 30.0007C63.517 29.6584 63.4935 29.2457 63.5716 28.7628C63.6498 28.2955 63.8025 27.8991 64.0297 27.5739C64.2584 27.2472 64.5361 26.9993 64.8628 26.8303C65.191 26.6612 65.5418 26.5767 65.9154 26.5767C66.1753 26.5767 66.4104 26.6122 66.6207 26.6832C66.8309 26.7543 67.0099 26.858 67.1576 26.9943C67.3067 27.1293 67.4189 27.2947 67.4942 27.4908C67.5695 27.6868 67.6022 27.9112 67.5922 28.1641ZM68.8589 30.4034L68.7929 30.6378C68.7432 30.8253 68.6771 31.0121 68.5947 31.1982C68.5138 31.3842 68.4328 31.5533 68.3518 31.7053C68.2709 31.8587 68.2069 31.9787 68.1601 32.0653H67.572C67.6032 31.9844 67.6494 31.8686 67.7105 31.718C67.773 31.5689 67.8362 31.4006 67.9001 31.2131C67.9655 31.0256 68.0173 30.8352 68.0557 30.642L68.1089 30.4034H68.8589ZM71.5116 26.6364H72.6494L73.3675 29.5682H73.4186L75.104 26.6364H76.2417L75.5173 31H74.6224L75.0954 28.1598H75.0571L73.4633 30.9787H72.8518L72.1956 28.1491H72.1594L71.6821 31H70.7872L71.5116 26.6364ZM76.2774 31L77.0019 26.6364H79.9422L79.8144 27.397H77.7966L77.6262 28.4368H79.4926L79.3648 29.1974H77.4983L77.3279 30.2393H79.3541L79.2263 31H76.2774ZM81.5194 31H79.9513L80.6757 26.6364H82.214C82.653 26.6364 83.0173 26.7259 83.3071 26.9048C83.5983 27.0838 83.8035 27.3402 83.9229 27.674C84.0422 28.0064 84.0635 28.4034 83.9868 28.8651C83.9129 29.3111 83.7659 29.6939 83.5457 30.0135C83.3256 30.3317 83.0436 30.576 82.6998 30.7464C82.3561 30.9155 81.9626 31 81.5194 31ZM81.0059 30.2095H81.5727C81.8469 30.2095 82.0869 30.1584 82.2929 30.0561C82.5003 29.9538 82.67 29.7962 82.8021 29.5831C82.9356 29.37 83.0301 29.0973 83.0855 28.7649C83.1381 28.4496 83.1345 28.1939 83.0748 27.9979C83.0166 27.8004 82.9037 27.6562 82.7361 27.5653C82.5684 27.473 82.3483 27.4268 82.0756 27.4268H81.4683L81.0059 30.2095ZM85.9635 26.6364L85.2391 31H84.3165L85.0409 26.6364H85.9635ZM86.7503 31H85.7616L87.9925 26.6364H89.1814L89.9612 31H88.9726L88.442 27.6335H88.4079L86.7503 31ZM86.9761 29.2848H89.3113L89.1878 30.005H86.8525L86.9761 29.2848ZM92.6272 31H91.6386L93.8694 26.6364H95.0583L95.8382 31H94.8495L94.319 27.6335H94.2849L92.6272 31ZM92.8531 29.2848H95.1883L95.0647 30.005H92.7295L92.8531 29.2848ZM100.738 26.6364L100.013 31H99.2164L97.7781 28.2536H97.7441L97.286 31H96.3634L97.0878 26.6364H97.8975L99.3293 29.3807H99.3655L99.8193 26.6364H100.738ZM102.344 31H100.775L101.5 26.6364H103.038C103.477 26.6364 103.842 26.7259 104.131 26.9048C104.422 27.0838 104.628 27.3402 104.747 27.674C104.866 28.0064 104.888 28.4034 104.811 28.8651C104.737 29.3111 104.59 29.6939 104.37 30.0135C104.15 30.3317 103.868 30.576 103.524 30.7464C103.18 30.9155 102.787 31 102.344 31ZM101.83 30.2095H102.397C102.671 30.2095 102.911 30.1584 103.117 30.0561C103.324 29.9538 103.494 29.7962 103.626 29.5831C103.76 29.37 103.854 29.0973 103.91 28.7649C103.962 28.4496 103.959 28.1939 103.899 27.9979C103.841 27.8004 103.728 27.6562 103.56 27.5653C103.393 27.473 103.172 27.4268 102.9 27.4268H102.293L101.83 30.2095ZM106.96 27.397L107.088 26.6364H110.671L110.544 27.397H109.208L108.611 31H107.699L108.296 27.397H106.96ZM110.537 31L111.262 26.6364H112.184L111.886 28.4368H113.759L114.057 26.6364H114.978L114.253 31H113.333L113.631 29.1974H111.758L111.46 31H110.537ZM115.014 31L115.738 26.6364H118.679L118.551 27.397H116.533L116.362 28.4368H118.229L118.101 29.1974H116.235L116.064 30.2393H118.09L117.963 31H115.014ZM120.828 31H119.84L122.071 26.6364H123.259L124.039 31H123.051L122.52 27.6335H122.486L120.828 31ZM121.054 29.2848H123.389L123.266 30.005H120.931L121.054 29.2848ZM124.565 31L125.289 26.6364H127.011C127.34 26.6364 127.611 26.6946 127.824 26.8111C128.039 26.9276 128.19 27.093 128.276 27.3075C128.364 27.5206 128.385 27.772 128.338 28.0618C128.29 28.3516 128.185 28.6001 128.025 28.8075C127.866 29.0149 127.658 29.1747 127.403 29.2869C127.148 29.3977 126.854 29.4531 126.518 29.4531H125.366L125.494 28.7116H126.495C126.671 28.7116 126.822 28.6875 126.947 28.6392C127.072 28.5909 127.17 28.5185 127.243 28.4219C127.317 28.3253 127.365 28.2053 127.388 28.0618C127.412 27.9155 127.403 27.7933 127.362 27.6953C127.321 27.5959 127.246 27.5206 127.138 27.4695C127.03 27.4169 126.888 27.3906 126.712 27.3906H126.09L125.487 31H124.565ZM127.249 29.0142L128.006 31H126.987L126.254 29.0142H127.249ZM128.968 27.397L129.095 26.6364H132.679L132.551 27.397H131.215L130.619 31H129.707L130.304 27.397H128.968ZM135.424 27.9041C135.431 27.7266 135.379 27.5895 135.268 27.4929C135.159 27.3963 134.993 27.348 134.772 27.348C134.621 27.348 134.49 27.3693 134.38 27.4119C134.269 27.4531 134.18 27.5107 134.113 27.5845C134.048 27.657 134.007 27.7408 133.992 27.8359C133.976 27.9141 133.981 27.9822 134.007 28.0405C134.034 28.0987 134.076 28.1491 134.132 28.1918C134.191 28.233 134.259 28.2692 134.339 28.3004C134.419 28.3303 134.503 28.3558 134.593 28.3771L134.968 28.4709C135.151 28.5135 135.316 28.5703 135.462 28.6413C135.61 28.7124 135.733 28.7997 135.833 28.9034C135.934 29.0071 136.005 29.1293 136.046 29.2699C136.087 29.4105 136.093 29.5717 136.063 29.7536C136.017 30.0206 135.911 30.2521 135.745 30.4482C135.579 30.6428 135.361 30.794 135.091 30.902C134.821 31.0085 134.509 31.0618 134.154 31.0618C133.801 31.0618 133.504 31.0078 133.261 30.8999C133.018 30.7919 132.841 30.6321 132.73 30.4205C132.621 30.2074 132.588 29.9439 132.632 29.63H133.525C133.509 29.7763 133.531 29.8984 133.589 29.9964C133.649 30.093 133.737 30.1662 133.855 30.2159C133.973 30.2642 134.112 30.2884 134.271 30.2884C134.429 30.2884 134.568 30.2656 134.691 30.2202C134.814 30.1747 134.914 30.1115 134.991 30.0305C135.068 29.9496 135.115 29.8565 135.132 29.7514C135.149 29.6534 135.134 29.571 135.087 29.5043C135.04 29.4375 134.965 29.3807 134.861 29.3338C134.759 29.2855 134.632 29.2429 134.48 29.206L134.024 29.0866C133.671 28.9972 133.405 28.8572 133.225 28.6669C133.044 28.4766 132.98 28.2202 133.031 27.8977C133.076 27.6335 133.186 27.4027 133.361 27.2053C133.537 27.0064 133.759 26.8523 134.026 26.7429C134.294 26.6321 134.588 26.5767 134.906 26.5767C135.23 26.5767 135.503 26.6328 135.726 26.745C135.949 26.8558 136.112 27.0107 136.214 27.2095C136.316 27.4084 136.348 27.6399 136.308 27.9041H135.424Z" fill="white"/>
</svg>
